<mxfile host="app.diagrams.net" modified="2021-07-14T03:19:34.056Z" agent="5.0 (Windows)" etag="iISpOKRMlp_6T2shfuYi" version="14.8.2" type="github">
  <diagram id="C5RBs43oDa-KdzZeNtuy" name="Page-1">
    <mxGraphModel dx="1422" dy="752" grid="1" gridSize="10" guides="1" tooltips="1" connect="1" arrows="1" fold="1" page="1" pageScale="1" pageWidth="827" pageHeight="1169" math="0" shadow="0">
      <root>
        <mxCell id="WIyWlLk6GJQsqaUBKTNV-0" />
        <mxCell id="WIyWlLk6GJQsqaUBKTNV-1" parent="WIyWlLk6GJQsqaUBKTNV-0" />
        <mxCell id="wIMvPOZcRAxBIdQoJb6R-41" value="用户/浏览器" style="shape=umlLifeline;perimeter=lifelinePerimeter;whiteSpace=wrap;html=1;container=1;collapsible=0;recursiveResize=0;outlineConnect=0;" vertex="1" parent="WIyWlLk6GJQsqaUBKTNV-1">
          <mxGeometry x="30" y="100" width="100" height="590" as="geometry" />
        </mxCell>
        <mxCell id="wIMvPOZcRAxBIdQoJb6R-47" value="" style="html=1;verticalAlign=bottom;labelBackgroundColor=none;endArrow=block;endFill=1;dashed=1;" edge="1" parent="wIMvPOZcRAxBIdQoJb6R-41" target="wIMvPOZcRAxBIdQoJb6R-45">
          <mxGeometry width="160" relative="1" as="geometry">
            <mxPoint x="50" y="70" as="sourcePoint" />
            <mxPoint x="210" y="70" as="targetPoint" />
          </mxGeometry>
        </mxCell>
        <mxCell id="wIMvPOZcRAxBIdQoJb6R-48" value="GET&amp;nbsp; http://www.kd100.com/userInfo" style="edgeLabel;html=1;align=center;verticalAlign=middle;resizable=0;points=[];" vertex="1" connectable="0" parent="wIMvPOZcRAxBIdQoJb6R-47">
          <mxGeometry x="-0.6124" relative="1" as="geometry">
            <mxPoint as="offset" />
          </mxGeometry>
        </mxCell>
        <mxCell id="wIMvPOZcRAxBIdQoJb6R-43" value="sso.kuaidi100.com" style="shape=umlLifeline;perimeter=lifelinePerimeter;whiteSpace=wrap;html=1;container=1;collapsible=0;recursiveResize=0;outlineConnect=0;" vertex="1" parent="WIyWlLk6GJQsqaUBKTNV-1">
          <mxGeometry x="414" y="100" width="130" height="590" as="geometry" />
        </mxCell>
        <mxCell id="wIMvPOZcRAxBIdQoJb6R-45" value="kd100.com" style="shape=umlLifeline;perimeter=lifelinePerimeter;whiteSpace=wrap;html=1;container=1;collapsible=0;recursiveResize=0;outlineConnect=0;" vertex="1" parent="WIyWlLk6GJQsqaUBKTNV-1">
          <mxGeometry x="810" y="100" width="100" height="590" as="geometry" />
        </mxCell>
      </root>
    </mxGraphModel>
  </diagram>
</mxfile>
